<svg width="786" height="786" viewBox="0 0 786 786" xmlns="http://www.w3.org/2000/svg" id="hud-svg" style="display: block;"><circle cx="393" cy="393" r="319" fill="none" stroke="#888888" stroke-width="6"/><path d="M 456.3485864650129 67.09977509537555 A 332 332 0 0 0 329.6514135349871 67.09977509537555 L 322.7822897014315 31.761196491259682 A 368 368 0 0 1 463.21771029856853 31.761196491259682 Z" fill="#888888"/><rect x="391.5" y="25" width="3" height="36" fill="#888888" transform="rotate(18, 393, 393)" opacity="0.7"/><rect x="391.5" y="25" width="3" height="36" fill="#888888" transform="rotate(24, 393, 393)" opacity="0.7"/><rect x="391.5" y="25" width="3" height="36" fill="#888888" transform="rotate(30, 393, 393)" opacity="0.7"/><rect x="391.5" y="25" width="3" height="36" fill="#888888" transform="rotate(36, 393, 393)" opacity="0.7"/><rect x="391.5" y="25" width="3" height="36" fill="#888888" transform="rotate(42, 393, 393)" opacity="0.7"/><rect x="391.5" y="25" width="3" height="36" fill="#888888" transform="rotate(48, 393, 393)" opacity="0.7"/><rect x="391.5" y="25" width="3" height="36" fill="#888888" transform="rotate(54, 393, 393)" opacity="0.7"/><rect x="391.5" y="25" width="3" height="36" fill="#888888" transform="rotate(60, 393, 393)" opacity="0.7"/><rect x="391.5" y="25" width="3" height="36" fill="#888888" transform="rotate(66, 393, 393)" opacity="0.7"/><rect x="391.5" y="25" width="3" height="36" fill="#888888" transform="rotate(72, 393, 393)" opacity="0.7"/><path d="M 718.9002249046245 456.3485864650129 A 332 332 0 0 0 718.9002249046245 329.6514135349871 L 754.2388035087404 322.7822897014315 A 368 368 0 0 1 754.2388035087404 463.2177102985685 Z" fill="#888888"/><rect x="391.5" y="25" width="3" height="36" fill="#888888" transform="rotate(108, 393, 393)" opacity="0.7"/><rect x="391.5" y="25" width="3" height="36" fill="#888888" transform="rotate(114, 393, 393)" opacity="0.7"/><rect x="391.5" y="25" width="3" height="36" fill="#888888" transform="rotate(120, 393, 393)" opacity="0.7"/><rect x="391.5" y="25" width="3" height="36" fill="#888888" transform="rotate(126, 393, 393)" opacity="0.7"/><rect x="391.5" y="25" width="3" height="36" fill="#888888" transform="rotate(132, 393, 393)" opacity="0.7"/><rect x="391.5" y="25" width="3" height="36" fill="#888888" transform="rotate(138, 393, 393)" opacity="0.7"/><rect x="391.5" y="25" width="3" height="36" fill="#888888" transform="rotate(144, 393, 393)" opacity="0.7"/><rect x="391.5" y="25" width="3" height="36" fill="#888888" transform="rotate(150, 393, 393)" opacity="0.7"/><rect x="391.5" y="25" width="3" height="36" fill="#888888" transform="rotate(156, 393, 393)" opacity="0.7"/><rect x="391.5" y="25" width="3" height="36" fill="#888888" transform="rotate(162, 393, 393)" opacity="0.7"/><path d="M 329.6514135349871 718.9002249046245 A 332 332 0 0 0 456.3485864650129 718.9002249046245 L 463.21771029856853 754.2388035087404 A 368 368 0 0 1 322.7822897014315 754.2388035087404 Z" fill="#888888"/><rect x="391.5" y="25" width="3" height="36" fill="#888888" transform="rotate(198, 393, 393)" opacity="0.7"/><rect x="391.5" y="25" width="3" height="36" fill="#888888" transform="rotate(204, 393, 393)" opacity="0.7"/><rect x="391.5" y="25" width="3" height="36" fill="#888888" transform="rotate(210, 393, 393)" opacity="0.7"/><rect x="391.5" y="25" width="3" height="36" fill="#888888" transform="rotate(216, 393, 393)" opacity="0.7"/><rect x="391.5" y="25" width="3" height="36" fill="#888888" transform="rotate(222, 393, 393)" opacity="0.7"/><rect x="391.5" y="25" width="3" height="36" fill="#888888" transform="rotate(228, 393, 393)" opacity="0.7"/><rect x="391.5" y="25" width="3" height="36" fill="#888888" transform="rotate(234, 393, 393)" opacity="0.7"/><rect x="391.5" y="25" width="3" height="36" fill="#888888" transform="rotate(240, 393, 393)" opacity="0.7"/><rect x="391.5" y="25" width="3" height="36" fill="#888888" transform="rotate(246, 393, 393)" opacity="0.7"/><rect x="391.5" y="25" width="3" height="36" fill="#888888" transform="rotate(252, 393, 393)" opacity="0.7"/><path d="M 67.09977509537555 329.65141353498717 A 332 332 0 0 0 67.09977509537555 456.34858646501294 L 31.761196491259682 463.21771029856853 A 368 368 0 0 1 31.761196491259682 322.7822897014315 Z" fill="#888888"/><rect x="391.5" y="25" width="3" height="36" fill="#888888" transform="rotate(288, 393, 393)" opacity="0.7"/><rect x="391.5" y="25" width="3" height="36" fill="#888888" transform="rotate(294, 393, 393)" opacity="0.7"/><rect x="391.5" y="25" width="3" height="36" fill="#888888" transform="rotate(300, 393, 393)" opacity="0.7"/><rect x="391.5" y="25" width="3" height="36" fill="#888888" transform="rotate(306, 393, 393)" opacity="0.7"/><rect x="391.5" y="25" width="3" height="36" fill="#888888" transform="rotate(312, 393, 393)" opacity="0.7"/><rect x="391.5" y="25" width="3" height="36" fill="#888888" transform="rotate(318, 393, 393)" opacity="0.7"/><rect x="391.5" y="25" width="3" height="36" fill="#888888" transform="rotate(324, 393, 393)" opacity="0.7"/><rect x="391.5" y="25" width="3" height="36" fill="#888888" transform="rotate(330, 393, 393)" opacity="0.7"/><rect x="391.5" y="25" width="3" height="36" fill="#888888" transform="rotate(336, 393, 393)" opacity="0.7"/><rect x="391.5" y="25" width="3" height="36" fill="#888888" transform="rotate(342, 393, 393)" opacity="0.7"/><path d="M 762.9495914687132 293.8723057257346 A 383 383 0 0 0 492.1276942742654 23.05040853128685" fill="none" stroke="#888888" stroke-width="1.5" opacity="0.8"/><path d="M 758.5404294857184 259.95416424631486 A 389 389 0 0 0 526.0458357536852 27.459570514281666" fill="none" stroke="#888888" stroke-width="0.7" opacity="0.4"/><path d="M 492.1276942742654 762.9495914687132 A 383 383 0 0 0 762.9495914687132 492.1276942742654" fill="none" stroke="#888888" stroke-width="1.5" opacity="0.8"/><path d="M 526.0458357536852 758.5404294857183 A 389 389 0 0 0 758.5404294857184 526.0458357536852" fill="none" stroke="#888888" stroke-width="0.7" opacity="0.4"/><path d="M 23.050408531286905 492.12769427426554 A 383 383 0 0 0 293.8723057257345 762.9495914687132" fill="none" stroke="#888888" stroke-width="1.5" opacity="0.8"/><path d="M 27.459570514281666 526.0458357536852 A 389 389 0 0 0 259.95416424631486 758.5404294857184" fill="none" stroke="#888888" stroke-width="0.7" opacity="0.4"/><path d="M 293.8723057257346 23.05040853128685 A 383 383 0 0 0 23.05040853128679 293.8723057257347" fill="none" stroke="#888888" stroke-width="1.5" opacity="0.8"/><path d="M 259.9541642463146 27.459570514281722 A 389 389 0 0 0 27.45957051428161 259.9541642463149" fill="none" stroke="#888888" stroke-width="0.7" opacity="0.4"/></svg>